<?xml version="1.0" encoding="UTF-8"?>
<svg id="Layer_1" data-name="Layer 1" xmlns="http://www.w3.org/2000/svg" xmlns:xlink="http://www.w3.org/1999/xlink" viewBox="0 0 215.18 147.51">
  <defs>
    <style>
      .cls-1 {
        fill: #003767;
      }

      .cls-2 {
        fill: url(#linear-gradient-2);
      }

      .cls-3 {
        fill: url(#linear-gradient);
      }

      .cls-4 {
        fill: #fff;
      }
    </style>
    <linearGradient id="linear-gradient" x1="31.65" y1="47.92" x2="105.52" y2="47.92" gradientUnits="userSpaceOnUse">
      <stop offset="0" stop-color="#f58967"/>
      <stop offset=".11" stop-color="#f2654b"/>
      <stop offset=".22" stop-color="#ef4836"/>
      <stop offset=".32" stop-color="#ee3728"/>
      <stop offset=".39" stop-color="#ee3124"/>
      <stop offset=".49" stop-color="#e52f24"/>
      <stop offset=".66" stop-color="#cd2c24"/>
      <stop offset=".86" stop-color="#a72624"/>
      <stop offset="1" stop-color="#8a2225"/>
    </linearGradient>
    <linearGradient id="linear-gradient-2" x1="149.84" y1="76.39" x2="149.84" y2="132.79" gradientUnits="userSpaceOnUse">
      <stop offset=".34" stop-color="#ee3124"/>
      <stop offset=".47" stop-color="#e72f24"/>
      <stop offset=".65" stop-color="#d42c24"/>
      <stop offset=".87" stop-color="#b62624"/>
      <stop offset="1" stop-color="#a02225"/>
    </linearGradient>
  </defs>
  <path class="cls-3" d="M52.33,79.84c15.25,0,23.16,5.24,24.14,16l6.08-16h18.73c7.8-14.21,5.87-37.91-14.6-53.2C64.67,10.18,71.63,0,71.63,0c-9.83,6.2-27.02,21.09-11.32,42.01,9.3,12.39,8.85,17.95,8.85,17.95-2.58-5.27-6.08-9.01-15.91-16.67-10.12-7.88-6.13-16.72-6.07-20.11-15.83,20.27-2.25,42.16-2.25,42.16-7.99-4.29-10.39-14.96-10.39-14.96-5.54,12.79-1.95,23.08.97,29.46h16.81Z"/>
  <path class="cls-1" d="M44.82,140.08h2.48v7.28h1.73v-7.28h2.48v-1.36h-6.69v1.36ZM3.37,138.72l-3.37,8.64h1.8l.76-1.98h3.5l.74,1.98h1.92l-3.39-8.64h-1.96ZM3.05,144.02l1.25-3.57h.02l1.25,3.57h-2.53ZM33.67,141.13c0-.94.77-1.2,1.36-1.2s1.21.14,1.76.37l.16-1.42c-.63-.21-1.33-.31-2.07-.31-1.52,0-3.02.71-3.02,2.64,0,2.86,3.79,2.18,3.79,3.82,0,.78-.88,1.11-1.54,1.11s-1.36-.21-1.96-.53l-.16,1.56c.85.21,1.28.33,2.22.33,1.74,0,3.24-.72,3.24-2.61,0-2.9-3.79-2.26-3.79-3.76ZM31.96,102.83H13.08v-10.74h19.72v-9.27H.03v48.99h13.05v-19.72h18.88v-9.26ZM21.79,143.7c0,1.47-.47,2.44-1.8,2.44s-1.79-.97-1.79-2.44v-4.99h-1.73v5.52c0,2.32,1.31,3.27,3.53,3.27s3.53-.95,3.53-3.27v-5.52h-1.73v4.99ZM63.31,143.09v-.02c1.1-.15,1.78-.99,1.78-2.01,0-2.4-2.21-2.34-4.08-2.34h-1.87v8.64h1.74v-3.59h.56c.73,0,.95.25,1.2.89l1.04,2.7h1.93l-1.39-3.38c-.17-.39-.44-.86-.92-.89ZM61.45,142.41h-.57v-2.33h.57c.87,0,1.83.09,1.83,1.13s-.98,1.2-1.83,1.2ZM100.67,82.83h-16l-18.6,48.99h13.26l3.86-10.46h18.38l3.65,10.46h14.31l-18.87-48.99ZM86.21,112.09l6.32-19.16h.14l5.83,19.16h-12.28ZM101.91,147.36h1.74v-8.64h-1.74v8.64ZM116.63,138.72h-1.96l-3.37,8.64h1.8l.75-1.98h3.51l.75,1.98h1.92l-3.39-8.64ZM114.34,144.02l1.25-3.57h.03l1.24,3.57h-2.52ZM76.03,138.72l-3.37,8.64h1.8l.76-1.98h3.5l.74,1.98h1.92l-3.39-8.64h-1.96ZM75.71,144.02l1.25-3.57h.03l1.24,3.57h-2.52ZM90.91,138.72h-1.73v8.64h5.09v-1.36h-3.35v-7.28ZM73.44,98.9c0-11.02-7.02-16.07-21.96-16.07h-15.58v48.99h13.05v-17.13h5.05c12.21,0,19.44-5.89,19.44-15.79ZM52.32,105.43h-3.37v-13.33h3.37c4.49,0,8.07,1.62,8.07,6.6s-3.58,6.74-8.07,6.74Z"/>
  <path class="cls-2" d="M168.08,76.39l-1.36,10.06h12.05l1.36-10.06h-12.05ZM161.2,131.8h11.97l5.07-40.45h-12.05l-4.99,40.45ZM156.83,95.47c-1.21-1.4-2.71-2.5-4.47-3.27-1.73-.75-3.61-1.26-5.61-1.53-4.46-.57-8.47-.5-12.17.27-2.1.44-3.99,1.2-5.63,2.24-1.65,1.06-3.03,2.47-4.09,4.18-1.07,1.72-1.68,3.9-1.82,6.46l-.03.62h11.26l.05-.53c.16-1.8.87-3.09,2.17-3.93,1.84-1.2,4.09-1.58,6.89-1.13.72.11,1.43.33,2.09.66.64.32,1.2.76,1.65,1.3.43.51.68,1.22.76,2.11.1,1.1-.08,1.91-.52,2.41-.47.54-1.26.96-2.36,1.26-1.17.32-2.69.55-4.5.7-1.84.15-4.05.38-6.57.68-4.82.57-8.53,2.06-11.01,4.41-2.53,2.4-3.64,5.62-3.3,9.59.12,1.43.52,2.82,1.16,4.12.65,1.31,1.59,2.47,2.79,3.46,1.19.98,2.66,1.77,4.37,2.34,1.71.57,3.67.87,5.84.87,2.34,0,4.6-.41,6.71-1.22,1.7-.65,3.17-1.6,4.4-2.83l.27,3.06h12.18l-.31-.8c-.3-.8-.49-1.51-.54-2.12-.06-.72-.1-1.62-.12-2.65-.01-.99.05-1.84.19-2.53l2.11-15.8c.34-2.56.43-4.82.26-6.72-.15-2.35-.85-4.27-2.09-5.7ZM145.85,116.06c-.21,1.04-.49,2.09-.84,3.11-.33.99-.84,1.88-1.5,2.66-.66.77-1.5,1.41-2.52,1.91-1.01.49-2.31.74-3.89.74-1.46,0-2.79-.34-3.94-1.02-1.09-.64-1.67-1.57-1.79-2.85-.1-1.1.02-2.01.36-2.69.34-.69.81-1.23,1.42-1.63.64-.42,1.4-.73,2.27-.95.88-.21,1.84-.38,2.82-.48,1.51-.1,3.1-.24,4.7-.42h0c1.2-.14,2.34-.46,3.4-.96l-.5,2.58Z"/>
  <path class="cls-4" d="M213.77,108.31,215.18,107.06h-42.72l-.13,1.09-1.9,15.51-.17,1.4h42.72l.13-1.09,1.9-15.51.17-1.4h0Z"/>
  <polygon class="cls-1" points="211.86 123.82 171.65 123.82 173.55 108.31 213.77 108.31 211.86 123.82"/>
  <path class="cls-4" d="M185.14,115.19c.2-.28.33-.6.37-.93.07-.54,0-1-.2-1.37-.2-.37-.51-.64-.94-.82-.42-.18-.93-.27-1.52-.27h-2.93l-1.06,8.64h3.32c.58,0,1.09-.09,1.54-.28.45-.19.82-.47,1.1-.84.28-.37.46-.82.52-1.35.06-.48,0-.89-.18-1.23-.18-.34-.45-.61-.83-.82.33-.21.6-.45.8-.73ZM183.19,118.65c-.26.2-.58.3-.99.3h-1.51l.28-2.25h1.37c.44,0,.78.1,1.01.3.23.2.32.48.28.83-.04.34-.19.61-.45.81ZM183.36,115.04c-.24.19-.54.28-.91.28h-1.31l.27-2.17h1.17c.41,0,.73.1.94.28.22.19.3.46.26.8-.04.35-.18.61-.42.8ZM186.09,120.44h5.52l.19-1.54h-3.83l.26-2.09h3.26l.19-1.51h-3.26l.24-1.96h3.78l.19-1.54h-5.47l-1.06,8.64ZM204.12,111.8h-1.8l-4.47,8.64h1.79l.96-1.9h3.58l.49,1.9h1.79l-2.35-8.64ZM201.36,117.05l1.61-3.18.83,3.18h-2.44ZM200.06,111.8h-6.86l-.19,1.54h2.59l-.87,7.1h1.69l.87-7.1h2.58l.19-1.54Z"/>
</svg>